<svg xmlns="http://www.w3.org/2000/svg" width="1024" height="1024" viewBox="0 0 1024 1024"><defs>
      <linearGradient id="sky" x1="0" y1="0" x2="0" y2="1">
        <stop offset="0" stop-color="hsla(244.18218556791544, 65%, 45%, 1)"/>
        <stop offset="0.6" stop-color="hsla(279.18218556791544, 80%, 75%, 1)"/>
        <stop offset="1" stop-color="hsla(304.18218556791544, 90%, 88%, 1)"/>
      </linearGradient>
      <radialGradient id="glow">
        <stop offset="0" stop-color="hsla(45, 100%, 85%, 0.9)"/>
        <stop offset="1" stop-color="hsla(45, 100%, 85%, 0)"/>
      </radialGradient>
    </defs><rect width="1024" height="1024" fill="url(#sky)"/><circle cx="563.8665257580578" cy="185.49624673090875" r="260" fill="url(#glow)"/><circle cx="563.8665257580578" cy="185.49624673090875" r="76.15033615380526" fill="hsla(46.519604213535786, 100%, 72%, 1)"/><g fill="hsla(0, 0%, 100%, 0.8)"><ellipse cx="781.8854777282104" cy="397.047206684947" rx="90.4229863663204" ry="31.648045228212137"/><ellipse cx="827.0969709113706" cy="378.96260941168293" rx="54.25379181979224" ry="31.648045228212137"/></g><g fill="hsla(0, 0%, 100%, 0.8)"><ellipse cx="306.9053537584841" cy="411.9387849792838" rx="87.01571480603889" ry="30.455500182113607"/><ellipse cx="350.41321116150357" cy="394.53564201807603" rx="52.20942888362333" ry="30.455500182113607"/></g><g fill="hsla(0, 0%, 100%, 0.8)"><ellipse cx="163.67259888444096" cy="216.26035800436512" rx="124.69438437605277" ry="43.64303453161847"/><ellipse cx="226.01979107246734" cy="191.32148112915456" rx="74.81663062563166" ry="43.64303453161847"/></g><g fill="hsla(0, 0%, 100%, 0.8)"><ellipse cx="489.4428495923057" cy="309.34192299842834" rx="91.84709776192904" ry="32.14648421667516"/><ellipse cx="535.3663984732702" cy="290.97250344604254" rx="55.10825865715742" ry="32.14648421667516"/></g><polygon points="0,1024 0,421 90,311 180,469 270,386 360,453 450,399 540,453 630,408 720,525 810,368 900,466 990,468 1024,434 1024,1024" fill="hsla(34.18218556791544, 35%, 58%, 1)"/><polygon points="0,1024 0,658 70,594 140,506 210,499 280,676 350,491 420,497 490,650 560,575 630,519 700,577 770,583 840,533 910,677 980,613 1024,628 1024,1024" fill="hsla(46.18218556791544, 35%, 42%, 1)"/><polygon points="0,1024 0,774 55,782 110,806 165,820 220,731 275,737 330,681 385,788 440,761 495,804 550,714 605,701 660,725 715,684 770,794 825,804 880,707 935,715 990,683 1024,809 1024,1024" fill="hsla(58.18218556791544, 35%, 28%, 1)"/><rect y="900" width="1024" height="124" fill="hsla(74.18218556791544, 45%, 18%, 1)"/><polygon points="248.3273241519928,872.3057761602104 220.8710625361651,970.3638533595949 275.78358576782045,970.3638533595949" fill="hsla(54.18218556791544, 40%, 12.245706064626575%, 1)"/><polygon points="46.92529034614563,790.5044791474938 9.835218119993804,922.9690228123218 84.01536257229745,922.9690228123218" fill="hsla(54.18218556791544, 40%, 14.720712155103683%, 1)"/><polygon points="263.556946516037,887.9504355415702 240.7535576209426,969.3911101669073 286.36033541113136,969.3911101669073" fill="hsla(54.18218556791544, 40%, 19.193910628557205%, 1)"/><polygon points="888.3429186344147,834.1457831556909 865.960771787446,914.0820218948647 910.7250654813834,914.0820218948647" fill="hsla(54.18218556791544, 40%, 15.277676038444042%, 1)"/><polygon points="49.029884338378906,870.8206072845496 18.592250654380766,979.5264418702573 79.46751802237705,979.5264418702573" fill="hsla(54.18218556791544, 40%, 13.468647325411439%, 1)"/><polygon points="175.92846131324768,870.9706065617502 143.2802143489942,987.5714885769412 208.57670827750115,987.5714885769412" fill="hsla(54.18218556791544, 40%, 13.296543406322598%, 1)"/><polygon points="209.91697788238525,832.1536915423349 178.55726222451776,944.1526760347188 241.27669354025275,944.1526760347188" fill="hsla(54.18218556791544, 40%, 15.55244474299252%, 1)"/><polygon points="864.3368470668793,783.8241020939313 828.2312879987992,912.7725273370743 900.4424061349594,912.7725273370743" fill="hsla(54.18218556791544, 40%, 16.6816731877625%, 1)"/><polygon points="668.4695613384247,800.6958702416159 632.332560222689,929.7565885121003 704.6065624541603,929.7565885121003" fill="hsla(54.18218556791544, 40%, 12.33095633983612%, 1)"/><polygon points="236.09216356277466,804.681574436836 207.04543001484126,908.4199085365981 265.13889711070806,908.4199085365981" fill="hsla(54.18218556791544, 40%, 15.574795046821237%, 1)"/><polygon points="887.890870809555,838.3469592779875 847.0592316184193,984.1742421034724 928.7225100006908,984.1742421034724" fill="hsla(54.18218556791544, 40%, 16.776858873665333%, 1)"/><polygon points="838.7990481853485,839.8977965512313 815.0755893419497,924.6244352776557 862.5225070287473,924.6244352776557" fill="hsla(54.18218556791544, 40%, 17.15067151747644%, 1)"/><polygon points="752.9503540992737,884.2053096415475 722.3325221512466,993.5547094559297 783.5681860473007,993.5547094559297" fill="hsla(54.18218556791544, 40%, 12.25779346935451%, 1)"/><polygon points="626.4170405864716,823.1422335212119 600.0546657257713,917.293572309427 652.7794154471718,917.293572309427" fill="hsla(54.18218556791544, 40%, 16.85605085082352%, 1)"/></svg>
